<?xml version="1.0" encoding="iso-8859-1"?>
<!-- Generator: Adobe Illustrator 19.0.0, SVG Export Plug-In . SVG Version: 6.00 Build 0)  -->
<svg xmlns="http://www.w3.org/2000/svg" xmlns:xlink="http://www.w3.org/1999/xlink" version="1.1" id="Layer_1" x="0px" y="0px" viewBox="0 0 512 512" style="enable-background:new 0 0 512 512;" xml:space="preserve" width="512" height="512">
<g>
	<polygon points="136.805,240 148.496,452 363.504,452 375.195,240  "/>
	<rect x="121" y="482" width="270" height="30"/>
	<path d="M136,84.271l35.971-17.986C178.479,71.723,186.855,75,196,75c20.711,0,37.5-16.789,37.5-37.5S216.711,0,196,0   s-37.5,16.789-37.5,37.5c0,0.656,0.017,1.307,0.051,1.955L106,65.729V120h30V84.271z"/>
	<path d="M406,65.729l-52.551-26.275c0.033-0.647,0.051-1.299,0.051-1.955C353.5,16.789,336.711,0,316,0s-37.5,16.789-37.5,37.5   S295.289,75,316,75c9.145,0,17.521-3.277,24.029-8.715L376,84.271V120h30V65.729z"/>
	<rect x="76" y="150" width="360" height="60"/>
</g>















</svg>
