<?xml version="1.0"?>
<svg xmlns="http://www.w3.org/2000/svg" height="512px" viewBox="0 -23 414.00153 414" width="512px" class=""><g transform="matrix(0.221452 0 0 0.221452 161.16 143.253)"><path d="m0 262.65625c0 12.683594 9.996094 23.347656 22.679688 23.347656h368.644531c12.679687 0 22.675781-10.664062 22.675781-23.347656v-30.652344h-414zm0 0" data-original="#000000" class="active-path" fill="#000000"/><path d="m244.082031 110.003906c0-20.4375-16.59375-37-37.0625-37-20.472656 0-37.066406 16.5625-37.066406 37 0 20.433594 16.59375 37 37.066406 37 20.46875 0 37.0625-16.566406 37.0625-37zm0 0" data-original="#000000" class="active-path" fill="#000000"/><path d="m391.324219.00390625h-368.644531c-6.023438-.07812505-11.820313 2.27343775-16.085938 6.51953175-4.265625 4.246093-6.6445312 10.035156-6.59375 16.054687v195.425781h414v-195.425781c.050781-6.019531-2.328125-11.808594-6.59375-16.054687-4.265625-4.246094-10.0625-6.5976568-16.082031-6.51953175zm-93.324219 122.29687475c-.015625 3.609375-2.757812 6.621094-6.351562 6.96875l-13.222657 1.289063c-1.578125 5.3125-3.742187 10.4375-6.453125 15.273437l8.484375 10.234375c2.3125 2.785156 2.117188 6.867188-.441406 9.421875l-17.386719 17.351563c-2.554687 2.550781-6.628906 2.742187-9.410156.4375l-10.21875-8.464844c-4.84375 2.730469-9.984375 4.894531-15.320312 6.445312l-1.292969 13.359376c-.34375 3.597656-3.351563 6.355468-6.964844 6.386718h-24.628906c-3.613281-.027344-6.625-2.785156-6.96875-6.386718l-1.289063-13.394532c-5.320312-1.574218-10.449218-3.742187-15.289062-6.453125l-10.25 8.5c-2.78125 2.300781-6.859375 2.113281-9.414063-.4375l-17.382812-17.347656c-2.558594-2.554687-2.75-6.640625-.445313-9.421875l8.457032-10.207031c-2.730469-4.835938-4.898438-9.964844-6.457032-15.296875l-13.390625-1.292969c-3.59375-.34375-6.34375-3.351563-6.363281-6.964844v-24.597656c.015625-3.613281 2.765625-6.625 6.359375-6.96875l13.429687-1.296875c1.578126-5.3125 3.742188-10.433594 6.453126-15.265625l-8.488282-10.234375c-2.304687-2.785156-2.113281-6.871094.445313-9.425781l17.382812-17.351563c2.554688-2.550781 6.632813-2.738281 9.414063-.4375l10.214844 8.464844c4.84375-2.734375 9.984374-4.894531 15.324218-6.449219l1.289063-13.359375c.347656-3.597656 3.355469-6.347656 6.96875-6.375h24.628906c3.613281.027344 6.625 2.785156 6.96875 6.382813l1.289063 13.394531c5.320312 1.578125 10.449218 3.742188 15.289062 6.457031l10.25-8.5c2.792969-2.316406 6.890625-2.113281 9.441406.464844l17.171875 17.347656c2.535157 2.558594 2.714844 6.621094.417969 9.390625l-8.457031 10.207032c2.730469 4.832031 4.898437 9.964843 6.457031 15.296874l13.390625 1.292969c3.59375.34375 6.34375 3.355469 6.359375 6.964844zm0 0" data-original="#000000" class="active-path" fill="#000000"/><path d="m265.828125 97.429688c-1.542969-7.140626-4.414063-13.929688-8.460937-20.015626-1.710938-2.574218-1.53125-5.964843.441406-8.34375l7.609375-9.179687-8.199219-8.285156-9.128906 7.5625c-2.347656 1.945312-5.6875 2.144531-8.25.492187-6.136719-4.019531-12.949219-6.898437-20.109375-8.488281-2.988281-.648437-5.21875-3.15625-5.511719-6.203125l-1.152344-11.964844h-11.917968l-1.15625 11.964844c-.289063 3.050781-2.507813 5.5625-5.5 6.230469-7.148438 1.527343-13.949219 4.386719-20.042969 8.425781-2.570313 1.703125-5.957031 1.519531-8.332031-.449219l-9.15625-7.59375-8.359376 8.339844 7.585938 9.148437c1.953125 2.363282 2.144531 5.722657.46875 8.289063-4.019531 6.132813-6.902344 12.941406-8.507812 20.101563-.664063 2.957031-3.15625 5.15625-6.175782 5.449218l-11.972656 1.152344v11.878906l11.976562 1.15625c3.035157.289063 5.535157 2.503906 6.199219 5.476563 1.542969 7.144531 4.414063 13.933593 8.457031 20.015625 1.710938 2.574218 1.53125 5.964844-.441406 8.34375l-7.582031 9.152344 8.355469 8.339843 9.160156-7.589843c2.347656-1.945313 5.6875-2.144532 8.25-.492188 6.136719 4.023438 12.949219 6.898438 20.109375 8.492188 2.992187.648437 5.21875 3.152343 5.511719 6.199218l1.152344 11.96875h11.917968l1.152344-11.96875c.292969-3.046875 2.511719-5.5625 5.5-6.226562 7.152344-1.53125 13.949219-4.390625 20.046875-8.429688 2.574219-1.703125 5.957031-1.519531 8.332031.449219l9.15625 7.59375 8.359375-8.339844-7.585937-9.148437c-1.953125-2.359375-2.144532-5.71875-.46875-8.289063 4.019531-6.132812 6.902344-12.941406 8.507812-20.097656.664063-2.957031 3.148438-5.15625 6.167969-5.449219l11.765625-1.148437v-11.886719l-11.972656-1.15625c-3.035156-.289062-5.539063-2.5-6.199219-5.476562zm-58.808594 63.574218c-28.160156-.039062-50.960937-22.886718-50.9375-51.042968.027344-28.160157 22.867188-50.96875 51.023438-50.957032 28.15625.011719 50.976562 22.839844 50.976562 51-.046875 28.171875-22.890625 50.984375-51.0625 51zm0 0" data-original="#000000" class="active-path" fill="#000000"/><path d="m316.464844 354.003906h-47.464844v-54h-124v54h-47.460938c-3.867187 0-7 3.132813-7 7 0 3.863282 3.132813 7 7 7h218.925782c3.863281 0 7-3.136718 7-7 0-3.867187-3.136719-7-7-7zm0 0" data-original="#000000" class="active-path" fill="#000000"/></g> </svg>
